<svg xmlns="http://www.w3.org/2000/svg" width="602.097" height="642.074" viewBox="0 0 602.097 642.074">
  <path id="Icon_awesome-star-of-life" data-name="Icon awesome-star-of-life" d="M590.975,418.739l-170.2-98.2,170.2-98.2a20.029,20.029,0,0,0,7.337-27.371l-40.092-69.4a20.054,20.054,0,0,0-27.383-7.337l-170.2,98.2V20.034A20.039,20.039,0,0,0,340.593,0H260.409a20.039,20.039,0,0,0-20.046,20.034v196.4l-170.2-98.2a20.054,20.054,0,0,0-27.383,7.337L2.689,194.964a20.032,20.032,0,0,0,7.337,27.371l170.2,98.2-170.2,98.2A20.032,20.032,0,0,0,2.689,446.11l40.092,69.4a20.065,20.065,0,0,0,27.383,7.337l170.2-98.2V621.041a20.039,20.039,0,0,0,20.046,20.034h80.184a20.039,20.039,0,0,0,20.046-20.034v-196.4l170.2,98.2A20.043,20.043,0,0,0,558.22,515.5l40.092-69.4A20.017,20.017,0,0,0,590.975,418.739Z" transform="translate(0.548 0.5)" fill="#141d1d" stroke="#00ff9f" stroke-width="1"/>
</svg>
