<svg xmlns="http://www.w3.org/2000/svg" width="339.431" height="284.555" viewBox="0 0 339.431 284.555">
  <g id="solana-sol-logo" transform="translate(37.995 0.585) rotate(9)">
    <path id="Path_7" data-name="Path 7" d="M49.463,237.01a9.965,9.965,0,0,1,7.045-2.91H299.557a4.978,4.978,0,0,1,3.522,8.5l-48.013,48.013a9.965,9.965,0,0,1-7.045,2.91H4.973a4.978,4.978,0,0,1-3.522-8.5Z" transform="translate(0 -54.838)" fill="#141d1d" stroke="#02df8c" stroke-width="1"/>
    <path id="Path_8" data-name="Path 8" d="M49.463,2.91A10.239,10.239,0,0,1,56.508,0H299.557a4.978,4.978,0,0,1,3.522,8.5L255.067,56.512a9.965,9.965,0,0,1-7.045,2.91H4.973a4.978,4.978,0,0,1-3.522-8.5Z" transform="translate(0)" fill="#141d1d" stroke="#02df8c" stroke-width="1"/>
    <path id="Path_9" data-name="Path 9" d="M255.067,119.21a9.965,9.965,0,0,0-7.045-2.91H4.973a4.978,4.978,0,0,0-3.522,8.5l48.013,48.013a9.965,9.965,0,0,0,7.045,2.91H299.557a4.978,4.978,0,0,0,3.522-8.5Z" transform="translate(0 -27.243)" fill="#141d1d" stroke="#02df8c" stroke-width="1"/>
  </g>
</svg>
